<svg viewBox="0 0 11 18" fill="none" xmlns="http://www.w3.org/2000/svg">
    <path d="M9.72103 0H1.27897C0.575644 0 0 0.546686 0 1.21577V16.7837C0 17.4528 0.575644 18 1.27897 18H9.72103C10.4244 18 11 17.4538 11 16.7842V1.21577C11 0.546686 10.4244 0 9.72103 0ZM4.14962 0.876343H6.85038C6.93586 0.876343 7.00512 0.942172 7.00512 1.02394C7.00512 1.1052 6.93586 1.17103 6.85038 1.17103H4.14962C4.06414 1.17103 3.99489 1.1052 3.99489 1.02394C3.99489 0.942172 4.06414 0.876343 4.14962 0.876343ZM5.5 17.3921C5.14671 17.3921 4.86052 17.1201 4.86052 16.7837C4.86052 16.4474 5.14671 16.1758 5.5 16.1758C5.85329 16.1758 6.13948 16.4474 6.13948 16.7837C6.13948 17.1201 5.85329 17.3921 5.5 17.3921ZM10.11 15.75H0.889976V1.92806H10.11V15.75Z" fill="#005FA3"/>
</svg>
